<svg xmlns="http://www.w3.org/2000/svg" version="1.1" width="70" height="70" viewBox="0 0 70 70"><rect x="0" y="0" width="70" height="70" fill="#ffffff"/><g transform="scale(1.707)"><g transform="translate(0,0)"><path fill-rule="evenodd" d="M9 0L9 1L8 1L8 2L9 2L9 1L10 1L10 3L8 3L8 4L10 4L10 7L11 7L11 10L9 10L9 11L8 11L8 9L9 9L9 8L6 8L6 9L7 9L7 10L5 10L5 8L0 8L0 9L1 9L1 10L0 10L0 12L1 12L1 10L2 10L2 13L3 13L3 14L2 14L2 15L0 15L0 16L3 16L3 17L4 17L4 18L2 18L2 17L1 17L1 18L2 18L2 19L1 19L1 20L2 20L2 21L4 21L4 22L0 22L0 24L1 24L1 23L3 23L3 24L4 24L4 22L6 22L6 23L7 23L7 22L8 22L8 25L7 25L7 24L5 24L5 27L4 27L4 29L3 29L3 31L4 31L4 32L2 32L2 33L7 33L7 32L5 32L5 31L8 31L8 28L9 28L9 30L10 30L10 31L11 31L11 34L10 34L10 32L8 32L8 35L10 35L10 36L8 36L8 41L9 41L9 39L10 39L10 40L11 40L11 37L12 37L12 38L13 38L13 37L12 37L12 36L14 36L14 37L15 37L15 38L14 38L14 39L15 39L15 40L13 40L13 39L12 39L12 41L16 41L16 39L18 39L18 38L19 38L19 37L23 37L23 38L22 38L22 39L21 39L21 38L20 38L20 39L21 39L21 40L22 40L22 41L23 41L23 40L24 40L24 41L27 41L27 40L28 40L28 41L32 41L32 40L34 40L34 39L35 39L35 41L36 41L36 39L37 39L37 41L39 41L39 40L40 40L40 39L39 39L39 40L38 40L38 37L39 37L39 38L41 38L41 35L39 35L39 33L40 33L40 34L41 34L41 31L40 31L40 32L38 32L38 31L39 31L39 30L41 30L41 29L40 29L40 28L41 28L41 27L40 27L40 28L38 28L38 29L39 29L39 30L37 30L37 29L36 29L36 28L37 28L37 25L31 25L31 23L30 23L30 24L29 24L29 22L27 22L27 21L30 21L30 22L32 22L32 24L38 24L38 27L39 27L39 26L41 26L41 24L40 24L40 23L39 23L39 24L38 24L38 23L37 23L37 21L40 21L40 22L41 22L41 20L40 20L40 19L39 19L39 20L37 20L37 17L36 17L36 16L35 16L35 17L34 17L34 15L31 15L31 14L35 14L35 15L37 15L37 13L40 13L40 14L41 14L41 12L38 12L38 11L36 11L36 10L38 10L38 8L37 8L37 9L36 9L36 8L35 8L35 9L34 9L34 8L33 8L33 9L31 9L31 10L33 10L33 9L34 9L34 10L35 10L35 11L32 11L32 12L31 12L31 11L30 11L30 8L29 8L29 6L30 6L30 7L31 7L31 8L32 8L32 7L33 7L33 4L32 4L32 3L31 3L31 4L30 4L30 3L29 3L29 2L30 2L30 1L33 1L33 0L28 0L28 1L27 1L27 2L26 2L26 1L25 1L25 2L26 2L26 3L25 3L25 4L24 4L24 2L23 2L23 4L22 4L22 7L21 7L21 5L20 5L20 7L21 7L21 8L20 8L20 9L19 9L19 10L18 10L18 11L19 11L19 10L20 10L20 11L21 11L21 13L20 13L20 14L17 14L17 13L16 13L16 11L17 11L17 9L18 9L18 8L17 8L17 9L16 9L16 7L17 7L17 6L18 6L18 7L19 7L19 6L18 6L18 5L19 5L19 4L17 4L17 3L19 3L19 2L18 2L18 0L16 0L16 1L14 1L14 0ZM19 0L19 1L20 1L20 2L21 2L21 3L20 3L20 4L21 4L21 3L22 3L22 0L21 0L21 1L20 1L20 0ZM23 0L23 1L24 1L24 0ZM28 1L28 2L27 2L27 3L26 3L26 4L25 4L25 8L26 8L26 4L27 4L27 5L29 5L29 4L27 4L27 3L28 3L28 2L29 2L29 1ZM11 2L11 3L13 3L13 7L12 7L12 6L11 6L11 7L12 7L12 9L13 9L13 10L11 10L11 11L10 11L10 12L7 12L7 11L6 11L6 12L4 12L4 11L5 11L5 10L4 10L4 9L2 9L2 10L3 10L3 12L4 12L4 13L6 13L6 14L7 14L7 15L6 15L6 16L5 16L5 14L3 14L3 16L5 16L5 17L6 17L6 18L7 18L7 19L6 19L6 20L8 20L8 22L9 22L9 23L10 23L10 24L9 24L9 25L8 25L8 26L7 26L7 25L6 25L6 26L7 26L7 27L5 27L5 29L4 29L4 30L5 30L5 29L6 29L6 30L7 30L7 29L6 29L6 28L8 28L8 27L12 27L12 26L13 26L13 29L10 29L10 30L13 30L13 31L12 31L12 34L11 34L11 36L12 36L12 35L13 35L13 32L14 32L14 31L15 31L15 33L16 33L16 31L17 31L17 32L18 32L18 33L19 33L19 32L18 32L18 31L19 31L19 30L20 30L20 31L22 31L22 29L25 29L25 30L26 30L26 29L27 29L27 30L28 30L28 31L29 31L29 32L30 32L30 31L29 31L29 29L30 29L30 30L31 30L31 33L30 33L30 35L29 35L29 33L24 33L24 32L23 32L23 33L22 33L22 32L20 32L20 33L21 33L21 36L23 36L23 37L25 37L25 36L26 36L26 37L27 37L27 38L25 38L25 40L26 40L26 39L27 39L27 38L28 38L28 37L32 37L32 36L31 36L31 34L32 34L32 31L34 31L34 32L36 32L36 31L37 31L37 30L35 30L35 31L34 31L34 30L31 30L31 29L35 29L35 28L34 28L34 27L36 27L36 26L34 26L34 27L32 27L32 26L31 26L31 25L28 25L28 24L27 24L27 25L26 25L26 26L25 26L25 24L26 24L26 23L27 23L27 22L25 22L25 24L24 24L24 22L23 22L23 21L25 21L25 20L26 20L26 21L27 21L27 20L26 20L26 19L27 19L27 18L28 18L28 20L30 20L30 21L32 21L32 22L33 22L33 23L34 23L34 22L33 22L33 21L37 21L37 20L35 20L35 19L32 19L32 18L31 18L31 17L33 17L33 16L31 16L31 15L29 15L29 16L28 16L28 15L27 15L27 14L30 14L30 13L31 13L31 12L30 12L30 11L29 11L29 12L30 12L30 13L28 13L28 11L26 11L26 9L24 9L24 5L23 5L23 7L22 7L22 8L21 8L21 9L20 9L20 10L21 10L21 9L22 9L22 10L23 10L23 12L22 12L22 13L21 13L21 14L20 14L20 15L22 15L22 14L23 14L23 17L24 17L24 18L23 18L23 19L22 19L22 16L21 16L21 17L20 17L20 18L18 18L18 19L20 19L20 18L21 18L21 20L23 20L23 21L22 21L22 22L21 22L21 21L19 21L19 20L17 20L17 21L16 21L16 19L17 19L17 18L16 18L16 17L17 17L17 16L18 16L18 17L19 17L19 15L17 15L17 14L15 14L15 17L14 17L14 14L13 14L13 13L15 13L15 12L14 12L14 11L15 11L15 10L16 10L16 9L15 9L15 8L14 8L14 5L15 5L15 4L16 4L16 5L17 5L17 4L16 4L16 3L15 3L15 2L14 2L14 3L13 3L13 2ZM14 3L14 4L15 4L15 3ZM11 4L11 5L12 5L12 4ZM8 5L8 7L9 7L9 5ZM30 5L30 6L31 6L31 7L32 7L32 5ZM15 6L15 7L16 7L16 6ZM27 6L27 8L28 8L28 6ZM13 8L13 9L14 9L14 10L15 10L15 9L14 9L14 8ZM39 8L39 9L40 9L40 10L41 10L41 9L40 9L40 8ZM23 9L23 10L24 10L24 9ZM27 9L27 10L28 10L28 9ZM11 11L11 13L10 13L10 15L11 15L11 17L10 17L10 19L9 19L9 22L11 22L11 18L12 18L12 17L13 17L13 20L14 20L14 21L15 21L15 23L14 23L14 22L13 22L13 21L12 21L12 22L13 22L13 23L12 23L12 25L11 25L11 26L12 26L12 25L16 25L16 26L15 26L15 27L14 27L14 28L15 28L15 27L16 27L16 28L17 28L17 25L18 25L18 27L19 27L19 26L20 26L20 25L18 25L18 24L17 24L17 25L16 25L16 23L18 23L18 22L19 22L19 21L17 21L17 22L16 22L16 21L15 21L15 20L14 20L14 19L16 19L16 18L14 18L14 17L13 17L13 16L12 16L12 15L13 15L13 14L11 14L11 13L13 13L13 12L12 12L12 11ZM24 11L24 12L23 12L23 14L24 14L24 17L25 17L25 18L24 18L24 19L25 19L25 18L26 18L26 17L28 17L28 16L25 16L25 15L26 15L26 14L27 14L27 13L26 13L26 12L25 12L25 11ZM35 11L35 12L33 12L33 13L37 13L37 12L36 12L36 11ZM6 12L6 13L7 13L7 14L8 14L8 15L9 15L9 14L8 14L8 13L7 13L7 12ZM18 12L18 13L19 13L19 12ZM24 12L24 13L25 13L25 14L26 14L26 13L25 13L25 12ZM16 15L16 16L17 16L17 15ZM39 15L39 16L38 16L38 17L39 17L39 18L41 18L41 17L39 17L39 16L40 16L40 15ZM6 16L6 17L7 17L7 18L8 18L8 16ZM29 16L29 19L30 19L30 16ZM4 18L4 19L5 19L5 18ZM2 19L2 20L3 20L3 19ZM6 21L6 22L7 22L7 21ZM20 22L20 23L21 23L21 24L22 24L22 25L21 25L21 27L20 27L20 28L21 28L21 29L20 29L20 30L21 30L21 29L22 29L22 28L23 28L23 27L22 27L22 25L23 25L23 26L24 26L24 25L23 25L23 23L21 23L21 22ZM35 22L35 23L36 23L36 22ZM13 23L13 24L14 24L14 23ZM0 25L0 26L1 26L1 25ZM2 25L2 27L3 27L3 26L4 26L4 25ZM9 25L9 26L10 26L10 25ZM27 26L27 29L29 29L29 28L28 28L28 26ZM0 27L0 33L1 33L1 30L2 30L2 28L1 28L1 27ZM24 27L24 28L25 28L25 29L26 29L26 28L25 28L25 27ZM30 27L30 28L32 28L32 27ZM18 28L18 29L13 29L13 30L17 30L17 31L18 31L18 29L19 29L19 28ZM23 30L23 31L24 31L24 30ZM25 31L25 32L27 32L27 31ZM37 32L37 33L38 33L38 32ZM23 33L23 34L22 34L22 35L23 35L23 36L25 36L25 35L23 35L23 34L24 34L24 33ZM33 33L33 36L36 36L36 33ZM16 34L16 35L17 35L17 34ZM18 34L18 35L20 35L20 34ZM26 34L26 36L27 36L27 37L28 37L28 34ZM34 34L34 35L35 35L35 34ZM14 35L14 36L15 36L15 35ZM37 35L37 37L36 37L36 38L37 38L37 37L38 37L38 36L39 36L39 37L40 37L40 36L39 36L39 35ZM17 36L17 37L16 37L16 38L17 38L17 37L19 37L19 36ZM9 37L9 38L10 38L10 37ZM33 37L33 38L35 38L35 37ZM23 38L23 39L22 39L22 40L23 40L23 39L24 39L24 38ZM29 38L29 39L28 39L28 40L30 40L30 38ZM17 40L17 41L18 41L18 40ZM0 0L0 7L7 7L7 0ZM1 1L1 6L6 6L6 1ZM2 2L2 5L5 5L5 2ZM34 0L34 7L41 7L41 0ZM35 1L35 6L40 6L40 1ZM36 2L36 5L39 5L39 2ZM0 34L0 41L7 41L7 34ZM1 35L1 40L6 40L6 35ZM2 36L2 39L5 39L5 36Z" fill="#000000"/></g></g></svg>