<svg xmlns="http://www.w3.org/2000/svg" version="1.1" width="70" height="70" viewBox="0 0 70 70"><rect x="0" y="0" width="70" height="70" fill="#ffffff"/><g transform="scale(1.707)"><g transform="translate(0,0)"><path fill-rule="evenodd" d="M8 0L8 4L9 4L9 5L8 5L8 7L9 7L9 8L10 8L10 9L11 9L11 11L10 11L10 10L9 10L9 11L7 11L7 10L6 10L6 11L7 11L7 12L5 12L5 14L6 14L6 15L7 15L7 14L6 14L6 13L7 13L7 12L8 12L8 14L9 14L9 16L12 16L12 17L10 17L10 19L9 19L9 18L8 18L8 20L6 20L6 21L4 21L4 22L3 22L3 24L1 24L1 26L0 26L0 27L3 27L3 30L2 30L2 28L0 28L0 30L2 30L2 32L0 32L0 33L3 33L3 32L5 32L5 31L7 31L7 30L8 30L8 32L9 32L9 33L8 33L8 34L9 34L9 33L11 33L11 35L13 35L13 34L14 34L14 33L15 33L15 35L14 35L14 36L12 36L12 37L16 37L16 39L17 39L17 41L18 41L18 40L20 40L20 41L25 41L25 40L24 40L24 39L25 39L25 37L23 37L23 39L20 39L20 37L21 37L21 38L22 38L22 37L21 37L21 36L22 36L22 35L25 35L25 34L26 34L26 35L27 35L27 36L26 36L26 37L27 37L27 39L26 39L26 40L27 40L27 41L31 41L31 40L30 40L30 38L31 38L31 39L32 39L32 41L33 41L33 39L34 39L34 41L36 41L36 40L37 40L37 41L38 41L38 40L37 40L37 39L36 39L36 40L35 40L35 39L34 39L34 37L35 37L35 38L36 38L36 37L37 37L37 38L39 38L39 37L38 37L38 36L37 36L37 35L39 35L39 34L40 34L40 39L39 39L39 41L40 41L40 40L41 40L41 32L40 32L40 31L41 31L41 28L40 28L40 27L41 27L41 21L40 21L40 20L41 20L41 17L40 17L40 16L41 16L41 12L40 12L40 11L41 11L41 8L37 8L37 9L36 9L36 8L35 8L35 9L33 9L33 5L31 5L31 4L32 4L32 3L31 3L31 2L33 2L33 1L31 1L31 0L30 0L30 1L31 1L31 2L29 2L29 3L31 3L31 4L29 4L29 6L28 6L28 7L27 7L27 6L26 6L26 3L27 3L27 5L28 5L28 3L27 3L27 2L26 2L26 1L29 1L29 0L26 0L26 1L25 1L25 2L24 2L24 4L23 4L23 2L21 2L21 3L22 3L22 4L21 4L21 5L20 5L20 3L19 3L19 2L20 2L20 1L21 1L21 0L20 0L20 1L18 1L18 2L17 2L17 0L13 0L13 1L12 1L12 2L11 2L11 1L10 1L10 2L9 2L9 0ZM23 0L23 1L24 1L24 0ZM15 1L15 3L14 3L14 2L12 2L12 3L11 3L11 2L10 2L10 3L9 3L9 4L10 4L10 3L11 3L11 5L9 5L9 7L10 7L10 8L12 8L12 6L13 6L13 10L14 10L14 9L15 9L15 10L16 10L16 9L15 9L15 8L17 8L17 7L18 7L18 6L19 6L19 7L20 7L20 5L19 5L19 3L18 3L18 4L17 4L17 5L16 5L16 3L17 3L17 2L16 2L16 1ZM25 2L25 3L26 3L26 2ZM12 3L12 5L13 5L13 3ZM15 5L15 6L14 6L14 7L15 7L15 6L16 6L16 7L17 7L17 6L16 6L16 5ZM23 5L23 8L22 8L22 9L21 9L21 8L19 8L19 9L18 9L18 10L17 10L17 11L16 11L16 12L15 12L15 11L14 11L14 13L15 13L15 14L13 14L13 15L12 15L12 16L13 16L13 17L12 17L12 19L13 19L13 20L14 20L14 19L15 19L15 20L16 20L16 21L12 21L12 20L11 20L11 21L10 21L10 20L8 20L8 21L6 21L6 22L7 22L7 23L6 23L6 24L7 24L7 23L8 23L8 21L10 21L10 22L11 22L11 24L12 24L12 26L14 26L14 25L15 25L15 24L16 24L16 25L17 25L17 23L16 23L16 21L17 21L17 22L19 22L19 21L20 21L20 23L22 23L22 24L23 24L23 25L21 25L21 26L20 26L20 24L19 24L19 25L18 25L18 26L17 26L17 27L14 27L14 29L15 29L15 30L16 30L16 31L18 31L18 30L17 30L17 29L19 29L19 28L20 28L20 29L21 29L21 28L20 28L20 27L21 27L21 26L23 26L23 25L24 25L24 26L25 26L25 25L27 25L27 24L29 24L29 22L30 22L30 21L31 21L31 23L30 23L30 24L31 24L31 23L32 23L32 24L33 24L33 23L34 23L34 25L30 25L30 26L29 26L29 25L28 25L28 26L29 26L29 27L30 27L30 26L31 26L31 27L32 27L32 28L34 28L34 29L31 29L31 28L30 28L30 29L31 29L31 30L29 30L29 31L28 31L28 32L27 32L27 31L25 31L25 30L24 30L24 32L25 32L25 33L24 33L24 34L25 34L25 33L28 33L28 34L29 34L29 35L30 35L30 37L31 37L31 38L33 38L33 37L31 37L31 35L30 35L30 34L31 34L31 33L32 33L32 32L33 32L33 31L35 31L35 30L34 30L34 29L37 29L37 28L38 28L38 32L37 32L37 30L36 30L36 32L37 32L37 34L39 34L39 31L40 31L40 28L39 28L39 27L40 27L40 24L39 24L39 23L40 23L40 22L39 22L39 20L40 20L40 17L39 17L39 15L40 15L40 14L39 14L39 15L38 15L38 17L39 17L39 18L35 18L35 20L34 20L34 21L31 21L31 20L33 20L33 19L34 19L34 17L35 17L35 16L36 16L36 17L37 17L37 14L35 14L35 16L33 16L33 15L34 15L34 14L33 14L33 12L32 12L32 11L33 11L33 9L31 9L31 8L32 8L32 6L31 6L31 5L30 5L30 6L29 6L29 7L28 7L28 8L26 8L26 6L25 6L25 7L24 7L24 5ZM10 6L10 7L11 7L11 6ZM21 6L21 7L22 7L22 6ZM30 6L30 7L29 7L29 8L28 8L28 9L27 9L27 10L26 10L26 9L25 9L25 8L24 8L24 9L23 9L23 10L21 10L21 9L20 9L20 11L21 11L21 13L20 13L20 12L19 12L19 13L18 13L18 14L17 14L17 15L16 15L16 14L15 14L15 15L14 15L14 16L17 16L17 17L13 17L13 18L15 18L15 19L16 19L16 18L17 18L17 20L18 20L18 21L19 21L19 20L20 20L20 21L22 21L22 23L23 23L23 24L25 24L25 21L22 21L22 20L25 20L25 19L26 19L26 21L27 21L27 20L29 20L29 21L28 21L28 22L27 22L27 23L26 23L26 24L27 24L27 23L28 23L28 22L29 22L29 21L30 21L30 20L31 20L31 19L29 19L29 18L28 18L28 16L29 16L29 17L30 17L30 16L31 16L31 17L33 17L33 16L31 16L31 15L28 15L28 14L29 14L29 13L30 13L30 11L31 11L31 10L30 10L30 11L29 11L29 13L28 13L28 12L27 12L27 11L28 11L28 10L29 10L29 9L30 9L30 8L31 8L31 6ZM0 8L0 10L1 10L1 9L2 9L2 8ZM4 8L4 9L7 9L7 8ZM24 9L24 10L25 10L25 9ZM37 9L37 11L36 11L36 10L35 10L35 11L34 11L34 13L35 13L35 11L36 11L36 13L39 13L39 11L40 11L40 10L38 10L38 9ZM4 10L4 11L5 11L5 10ZM18 10L18 11L19 11L19 10ZM0 11L0 12L1 12L1 15L2 15L2 16L1 16L1 17L2 17L2 18L1 18L1 19L0 19L0 21L3 21L3 18L4 18L4 17L5 17L5 18L6 18L6 19L7 19L7 18L6 18L6 17L8 17L8 16L6 16L6 17L5 17L5 16L4 16L4 14L3 14L3 13L4 13L4 12L2 12L2 11ZM11 11L11 12L12 12L12 13L11 13L11 14L12 14L12 13L13 13L13 11ZM24 11L24 13L26 13L26 15L25 15L25 14L24 14L24 15L23 15L23 14L21 14L21 15L20 15L20 14L19 14L19 16L20 16L20 17L17 17L17 18L18 18L18 19L20 19L20 17L21 17L21 18L22 18L22 17L21 17L21 15L22 15L22 16L23 16L23 17L24 17L24 19L25 19L25 17L27 17L27 13L26 13L26 11ZM37 11L37 12L38 12L38 11ZM9 12L9 13L10 13L10 12ZM16 12L16 13L17 13L17 12ZM22 12L22 13L23 13L23 12ZM32 14L32 15L33 15L33 14ZM2 16L2 17L3 17L3 16ZM24 16L24 17L25 17L25 16ZM32 18L32 19L33 19L33 18ZM1 19L1 20L2 20L2 19ZM34 21L34 22L36 22L36 23L35 23L35 24L36 24L36 23L37 23L37 25L34 25L34 26L32 26L32 27L34 27L34 28L35 28L35 27L36 27L36 26L38 26L38 27L39 27L39 26L38 26L38 23L37 23L37 22L38 22L38 21ZM1 22L1 23L2 23L2 22ZM14 22L14 24L15 24L15 22ZM32 22L32 23L33 23L33 22ZM4 23L4 24L3 24L3 25L4 25L4 30L5 30L5 28L7 28L7 29L6 29L6 30L7 30L7 29L8 29L8 30L9 30L9 32L11 32L11 33L12 33L12 34L13 34L13 33L14 33L14 30L13 30L13 31L12 31L12 32L11 32L11 30L12 30L12 29L13 29L13 27L12 27L12 29L10 29L10 27L11 27L11 25L10 25L10 23L9 23L9 24L8 24L8 25L4 25L4 24L5 24L5 23ZM12 23L12 24L13 24L13 23ZM9 25L9 26L10 26L10 25ZM5 26L5 27L7 27L7 28L8 28L8 29L9 29L9 30L10 30L10 29L9 29L9 28L8 28L8 26ZM18 26L18 27L19 27L19 26ZM26 26L26 27L24 27L24 28L22 28L22 29L26 29L26 30L28 30L28 28L27 28L27 29L26 29L26 27L27 27L27 26ZM34 26L34 27L35 27L35 26ZM15 28L15 29L17 29L17 28ZM19 30L19 32L18 32L18 33L17 33L17 32L15 32L15 33L17 33L17 34L16 34L16 35L15 35L15 36L16 36L16 37L17 37L17 39L19 39L19 37L20 37L20 36L19 36L19 37L18 37L18 36L17 36L17 34L18 34L18 35L20 35L20 34L21 34L21 33L19 33L19 32L21 32L21 31L22 31L22 32L23 32L23 30L21 30L21 31L20 31L20 30ZM32 30L32 31L33 31L33 30ZM29 31L29 32L28 32L28 33L29 33L29 34L30 34L30 33L31 33L31 32L30 32L30 31ZM6 32L6 33L7 33L7 32ZM12 32L12 33L13 33L13 32ZM22 33L22 34L23 34L23 33ZM33 33L33 36L36 36L36 33ZM34 34L34 35L35 35L35 34ZM8 35L8 37L10 37L10 38L9 38L9 39L8 39L8 41L9 41L9 39L10 39L10 41L14 41L14 40L15 40L15 41L16 41L16 40L15 40L15 38L14 38L14 40L13 40L13 39L12 39L12 40L11 40L11 36L10 36L10 35ZM27 36L27 37L29 37L29 36ZM28 38L28 39L27 39L27 40L29 40L29 38ZM0 0L0 7L7 7L7 0ZM1 1L1 6L6 6L6 1ZM2 2L2 5L5 5L5 2ZM34 0L34 7L41 7L41 0ZM35 1L35 6L40 6L40 1ZM36 2L36 5L39 5L39 2ZM0 34L0 41L7 41L7 34ZM1 35L1 40L6 40L6 35ZM2 36L2 39L5 39L5 36Z" fill="#000000"/></g></g></svg>